M48
; DRILL file KiCad 10.0.4-10.0.4~ubuntu26.04.1 date 2026-07-21T17:31:19
; FORMAT={-:-/ absolute / metric / decimal}
; #@! TF.CreationDate,2026-07-21T17:31:19+05:00
; #@! TF.GenerationSoftware,Kicad,Pcbnew,10.0.4-10.0.4~ubuntu26.04.1
; #@! TF.FileFunction,Plated,1,2,PTH
FMAT,2
METRIC
; #@! TA.AperFunction,Plated,PTH,ViaDrill
T1C0.300
; #@! TA.AperFunction,Plated,PTH,ComponentDrill
T2C0.600
; #@! TA.AperFunction,Plated,PTH,ComponentDrill
T3C0.762
; #@! TA.AperFunction,Plated,PTH,ComponentDrill
T4C0.800
; #@! TA.AperFunction,Plated,PTH,ComponentDrill
T5C0.900
; #@! TA.AperFunction,Plated,PTH,ComponentDrill
T6C0.920
; #@! TA.AperFunction,Plated,PTH,ComponentDrill
T7C1.000
; #@! TA.AperFunction,Plated,PTH,ComponentDrill
T8C1.016
; #@! TA.AperFunction,Plated,PTH,ComponentDrill
T9C1.250
; #@! TA.AperFunction,Plated,PTH,ComponentDrill
T10C1.700
; #@! TA.AperFunction,Plated,PTH,ComponentDrill
T11C2.300
; #@! TA.AperFunction,Plated,PTH,ComponentDrill
T12C2.600
; #@! TA.AperFunction,Plated,PTH,ComponentDrill
T13C3.200
%
G90
G05
T1
X-24.1Y6.5
X-23.4Y11.85
X-23.4Y-5.1
X-23.315Y-17.895
X-23.291Y-1.709
X-23.1Y13.9
X-22.8Y-4.3
X-21.858Y-26.075
X-21.4Y14.4
X-20.916Y27.939
X-20.7Y34.2
X-20.063Y14.975
X-20.003Y33.097
X-19.46Y7.76
X-18.613Y31.837
X-17.9Y1.0
X-17.786Y-3.0
X-17.2Y-35.8
X-17.0Y-15.1
X-16.778Y19.273
X-16.6Y-4.8
X-16.5Y11.5
X-16.4Y8.5
X-15.7Y22.0
X-15.391Y-31.335
X-15.1Y-20.3
X-14.926Y17.614
X-14.631Y31.539
X-14.473Y18.923
X-14.208Y0.775
X-14.2Y-16.1
X-14.0Y-7.7
X-13.5Y14.646
X-13.3Y7.2
X-12.348Y-6.018
X-12.3Y-0.9
X-11.878Y-27.236
X-11.707Y7.3
X-11.45Y-7.8
X-11.137Y12.617
X-11.0Y23.7
X-10.93Y-28.482
X-10.9Y3.3
X-10.0Y28.2
X-9.875Y10.32
X-9.7Y-17.868
X-9.637Y-2.716
X-8.3Y-2.75
X-8.265Y-32.748
X-7.2Y-39.7
X-7.2Y-42.25
X-6.302Y8.419
X-5.849Y-11.525
X-5.593Y11.194
X-5.225Y-36.475
X-4.893Y8.398
X-4.486Y-11.487
X-4.45Y-1.6
X-4.4Y18.0
X-4.4Y-3.312
X-4.181Y-35.78
X-3.65Y-6.6
X-3.331Y-7.786
X-2.012Y-1.617
X-1.943Y-34.334
X-1.93Y-11.506
X-1.7Y3.05
X-1.417Y-32.6
X-1.4Y-16.5
X-1.3Y-17.9
X-1.175Y-35.925
X-1.03Y-7.221
X-1.0Y33.779
X-0.866Y20.168
X-0.4Y19.075
X-0.148Y-13.726
X-0.096Y-7.579
X0.25Y3.0
X0.388Y17.844
X0.425Y11.166
X0.508Y-16.496
X0.9Y-6.8
X1.023Y-11.506
X1.3Y33.7
X1.788Y9.28
X2.5Y33.8
X2.5Y-17.4
X2.681Y-27.154
X2.8Y17.4
X3.067Y-11.43
X3.089Y-30.77
X3.423Y21.549
X3.6Y-6.5
X3.8Y1.5
X4.7Y9.3
X5.015Y-44.046
X5.55Y-3.85
X5.6Y35.9
X5.642Y-11.43
X5.849Y-30.377
X6.4Y-16.3
X6.5Y-6.5
X7.2Y-24.1
X7.8Y17.5
X8.747Y-42.317
X8.8Y-16.7
X9.402Y13.037
X9.5Y8.7
X9.7Y-6.5
X9.846Y34.527
X10.0Y13.8
X11.25Y-3.1
X12.0Y36.0
X12.477Y17.702
X12.575Y42.275
X13.2Y16.3
X13.2Y-17.25
X13.332Y40.918
X13.7Y1.2
X14.1Y-13.1
X14.2Y15.4
X14.2Y-3.9
X14.288Y-6.967
X14.5Y9.2
X14.975Y39.725
X15.0Y31.6
X15.585Y3.695
X16.15Y-14.55
X16.2Y-24.3
X16.7Y-3.7
X16.8Y2.1
X17.3Y-12.7
X18.6Y33.75
X18.65Y-17.25
X18.65Y-27.0
X19.2Y1.4
X19.574Y22.011
X20.52Y-4.969
X20.6Y-24.9
X21.45Y15.475
X21.988Y42.195
X23.4Y39.712
X24.9Y15.475
X25.0Y43.7
X25.267Y21.833
X25.623Y39.692
X26.5Y38.1
X26.9Y37.1
X28.1Y42.864
X29.161Y37.452
X29.5Y-0.2
X29.5Y-4.0
X31.12Y32.3
X31.332Y34.319
X31.42Y-9.36
X31.42Y-11.91
X32.15Y38.9
X32.187Y36.653
X32.978Y-26.214
X33.409Y34.309
X33.619Y32.202
X33.975Y15.375
X34.422Y37.677
X34.481Y26.6
X34.685Y41.478
X34.929Y32.719
X35.236Y10.282
X35.25Y39.6
X35.84Y-9.31
X36.378Y37.377
X36.74Y33.701
X36.874Y46.29
X37.092Y36.719
X37.247Y-27.834
X37.8Y-21.3
X37.875Y14.3
X38.196Y10.265
X38.36Y28.412
X39.208Y32.09
X39.6Y21.6
X39.7Y5.1
X39.9Y1.0
X40.04Y-11.63
X40.275Y24.6
X40.914Y-22.225
X41.122Y17.6
X41.354Y31.689
X41.424Y34.089
X41.571Y-23.555
X42.12Y-12.908
X42.25Y26.575
X42.323Y6.153
X42.8Y2.9
X42.9Y0.4
X44.43Y33.1
X44.9Y2.0
X44.961Y-24.218
X45.2Y9.1
X46.0Y0.0
X46.2Y3.3
X46.9Y10.1
X47.22Y38.85
X48.4Y4.6
X48.6Y1.2
X49.1Y22.8
X49.8Y0.5
X49.9Y-19.0
X50.05Y-15.9
X50.3Y-7.7
X50.33Y33.15
X50.35Y-12.05
X50.78Y29.32
X51.2Y22.9
X51.4Y33.3
X51.64Y38.79
X52.1Y15.1
X52.187Y-6.189
X52.776Y8.509
X52.85Y-15.85
X52.964Y-17.804
X52.976Y-12.224
X53.4Y-8.0
X53.5Y-9.0
X53.6Y4.3
X53.7Y1.5
X53.72Y33.74
X53.88Y-19.095
X53.9Y-12.0
X56.152Y-18.321
X56.179Y24.929
X56.6Y-3.346
X56.799Y12.659
X57.05Y33.61
X57.42Y30.53
X57.998Y19.511
X58.275Y1.25
X58.3Y3.925
X58.395Y-21.105
X58.477Y-9.132
X58.578Y22.404
X58.6Y39.7
X58.848Y-16.311
X58.872Y5.2
X58.9Y24.7
X59.012Y-0.563
X59.09Y32.26
X59.1Y13.6
X59.636Y0.516
X59.94Y-10.913
X59.974Y7.255
X60.4Y14.8
X60.5Y22.4
X60.598Y7.969
X60.6Y32.5
X61.0Y-7.6
X61.4Y-36.8
X61.7Y10.1
X61.798Y12.687
X61.9Y32.2
X61.9Y21.5
X62.3Y8.3
X62.672Y9.952
X63.0Y-35.0
X63.15Y36.51
X63.322Y9.314
X63.4Y33.5
X63.4Y22.1
X63.5Y0.6
X64.0Y-10.7
X64.122Y6.177
X64.156Y15.051
X64.645Y38.3
X64.677Y42.2
X64.75Y7.275
X65.2Y12.2
X65.26Y4.575
X65.681Y37.199
X66.325Y5.15
X66.745Y38.3
X67.26Y33.03
X67.278Y41.872
X67.9Y3.4
X67.962Y0.537
X68.408Y-31.377
X68.643Y34.1
X68.725Y4.3
X68.845Y41.8
X69.16Y5.352
X69.2Y-16.0
X69.83Y37.118
X69.977Y41.777
X70.61Y-18.24
X70.945Y38.3
X71.237Y18.69
X71.3Y4.1
X71.337Y1.485
X71.376Y24.616
X71.9Y36.7
X71.95Y-18.4
X72.16Y-26.5
X72.16Y-35.27
X72.2Y41.014
X72.31Y-25.27
X72.35Y4.2
X72.4Y-0.15
X72.563Y-10.859
X72.567Y34.11
X72.6Y11.75
X72.891Y25.899
X73.2Y38.3
X73.25Y22.75
X73.35Y14.25
X73.38Y-26.26
X74.305Y41.269
X75.145Y38.3
X75.154Y47.119
X75.168Y34.17
X75.3Y-0.025
X75.998Y5.9
X76.28Y-25.9
X76.3Y25.9
X76.375Y1.6
X76.875Y22.675
X77.14Y-25.58
X77.15Y3.075
X77.256Y41.599
X77.4Y38.3
X78.0Y2.2
X78.339Y35.579
X78.5Y14.1
X79.2Y14.7
X79.25Y-24.89
X79.29Y-28.34
X79.345Y38.3
X79.348Y41.573
X80.18Y-16.12
X80.4Y25.1
X80.4Y4.6
X80.46Y36.02
X81.6Y46.8
X81.796Y31.516
X81.88Y14.475
X82.56Y-12.4
X82.97Y35.86
X83.275Y11.675
X83.8Y32.5
X84.0Y4.4
X84.05Y-16.39
X84.2Y20.5
X84.2Y-31.4
X84.58Y-6.74
X85.13Y-12.44
X85.25Y18.691
X87.3Y2.9
X87.335Y-1.391
X87.711Y31.611
X89.155Y30.955
X89.8Y-31.4
X90.506Y34.599
X91.7Y33.9
X91.8Y30.0
X91.93Y1.58
X91.945Y31.573
X92.854Y-2.9
X93.22Y-24.89
X93.24Y-27.89
X93.325Y-16.2
X93.5Y13.9
X93.61Y-9.83
X93.62Y7.65
X94.074Y39.742
X94.09Y-8.81
X94.4Y0.0
X95.0Y18.27
X95.03Y-16.79
X95.19Y-20.53
X95.19Y-22.79
X95.23Y1.16
X96.02Y-16.25
X96.19Y26.93
X96.24Y-8.88
X96.3Y30.9
X96.495Y15.4
X96.503Y21.188
X97.4Y30.8
X98.38Y-9.83
X98.5Y27.5
X99.49Y-27.34
X99.625Y-17.5
X99.65Y35.8
X99.65Y-20.575
X100.445Y11.662
X100.67Y25.05
X100.9Y14.7
X101.106Y34.329
X101.37Y30.05
X101.92Y17.61
X101.955Y-14.475
X102.22Y7.8
X105.453Y9.137
X105.6Y21.21
X105.68Y18.89
X105.75Y-5.25
X105.75Y-14.5
X106.5Y31.0
X106.63Y24.77
X107.1Y-17.63
X107.27Y20.75
X107.32Y18.86
X107.73Y-26.84
X108.0Y21.957
X108.68Y20.74
X108.68Y18.87
X108.69Y-26.81
X108.9Y30.9
X109.25Y1.5
X109.67Y15.36
X109.71Y-17.79
X109.83Y13.44
X110.1Y38.0
X110.22Y7.79
X110.25Y-4.5
X110.306Y29.474
X110.336Y30.534
X111.383Y3.646
X111.53Y-31.83
X111.62Y29.99
X111.8Y23.8
X111.82Y25.5
X112.12Y-26.75
X112.3Y16.195
X112.44Y36.0
X112.46Y7.22
X112.5Y1.25
X112.6Y29.68
X112.75Y-3.5
X113.06Y-26.8
X113.2Y24.0
X113.649Y4.606
X113.649Y2.702
X114.0Y-19.75
X114.195Y19.5
X114.92Y9.44
X115.275Y24.775
X115.91Y32.13
X116.2Y-22.25
X116.25Y-28.5
X116.25Y-30.25
X116.398Y18.76
X116.675Y-14.275
X116.749Y4.157
X116.798Y2.594
X117.21Y-17.55
X117.25Y6.75
X117.42Y21.23
X117.57Y23.98
X117.7Y31.6
X117.809Y5.853
X117.81Y0.95
X118.25Y-17.19
X118.34Y16.47
X118.37Y12.88
X118.65Y34.75
X119.025Y-14.95
X119.21Y-16.71
X119.69Y9.44
X119.89Y-29.62
X120.5Y-28.802
X120.67Y20.93
X120.704Y-37.245
X120.948Y2.146
X120.966Y5.04
X121.1Y19.4
X121.21Y-9.41
X121.4Y0.55
X121.4Y-23.675
X121.4Y-27.55
X121.4Y-36.125
X121.425Y-25.0
X121.429Y-21.326
X121.434Y-29.911
X121.438Y-38.499
X121.446Y-18.979
X121.91Y24.12
X122.98Y-11.02
X123.54Y29.98
X123.72Y10.29
X123.9Y6.15
X123.9Y0.45
X124.1Y-37.2
X124.168Y-20.153
X124.2Y-28.702
T2
X-18.0Y22.6
X-18.0Y21.35
X-3.3Y22.6
X-3.3Y21.35
X3.9Y38.6
X3.9Y37.1
X35.995Y41.3
X37.245Y41.3
X38.495Y41.3
X39.745Y41.3
X40.995Y41.3
X42.245Y41.3
X43.495Y41.3
X44.745Y41.3
T3
X67.37Y30.12
X67.37Y27.58
X67.37Y25.04
X67.37Y22.5
X67.37Y19.96
X67.37Y17.42
X67.37Y14.88
X67.37Y12.34
X67.37Y9.8
X67.37Y7.26
X69.91Y30.12
X69.91Y27.58
X69.91Y25.04
X69.91Y22.5
X69.91Y19.96
X69.91Y17.42
X69.91Y14.88
X69.91Y12.34
X69.91Y9.8
X69.91Y7.26
X72.45Y30.12
X72.45Y27.58
X72.45Y9.8
X72.45Y7.26
X74.99Y30.12
X74.99Y27.58
X74.99Y9.8
X74.99Y7.26
X77.53Y30.12
X77.53Y27.58
X77.53Y9.8
X77.53Y7.26
X80.07Y30.12
X80.07Y27.58
X80.07Y9.8
X80.07Y7.26
X82.61Y30.12
X82.61Y27.58
X82.61Y9.8
X82.61Y7.26
X85.15Y30.12
X85.15Y27.58
X85.15Y9.8
X85.15Y7.26
X87.69Y30.12
X87.69Y27.58
X87.69Y25.04
X87.69Y22.5
X87.69Y19.96
X87.69Y17.42
X87.69Y14.88
X87.69Y12.34
X87.69Y9.8
X87.69Y7.26
X90.23Y30.12
X90.23Y27.58
X90.23Y25.04
X90.23Y22.5
X90.23Y19.96
X90.23Y17.42
X90.23Y14.88
X90.23Y12.34
X90.23Y9.8
X90.23Y7.26
T4
X-21.74Y5.24
X-21.74Y-10.0
X-21.74Y-22.31
X-21.74Y-37.55
X-19.5Y-14.9
X-19.5Y-17.4
X-19.4Y12.188
X-19.4Y9.688
X-19.2Y5.24
X-19.2Y-10.0
X-19.2Y-22.31
X-19.2Y-37.55
X-18.318Y30.0
X-16.66Y5.24
X-16.66Y-10.0
X-16.66Y-22.31
X-16.66Y-37.55
X-15.818Y30.0
X-14.12Y5.24
X-14.12Y-10.0
X-14.12Y-22.31
X-14.12Y-37.55
X-11.58Y5.24
X-11.58Y-10.0
X-11.58Y-22.31
X-11.58Y-37.55
X-9.04Y5.24
X-9.04Y-10.0
X-9.04Y-22.31
X-9.04Y-37.55
X-6.5Y5.24
X-6.5Y-10.0
X-6.5Y-22.31
X-6.5Y-37.55
X-3.96Y5.24
X-3.96Y-10.0
X-3.96Y-22.31
X-3.96Y-37.55
X-1.42Y5.24
X-1.42Y-10.0
X-1.42Y-22.31
X-1.42Y-37.55
X1.12Y5.24
X1.12Y-10.0
X1.12Y-22.31
X1.12Y-37.55
X3.66Y5.24
X3.66Y-10.0
X3.66Y-22.31
X3.66Y-37.55
X6.2Y5.24
X6.2Y-10.0
X6.2Y-22.31
X6.2Y-37.55
X8.74Y5.24
X8.74Y-10.0
X8.74Y-22.31
X8.74Y-37.55
X11.28Y5.24
X11.28Y-10.0
X11.28Y-22.31
X11.28Y-37.55
X13.82Y5.24
X13.82Y-10.0
X13.82Y-22.31
X13.82Y-37.55
X16.36Y5.24
X16.36Y-10.0
X16.36Y-22.31
X16.36Y-37.55
X18.9Y5.24
X18.9Y-10.0
X18.9Y-22.31
X18.9Y-37.55
X21.44Y5.24
X21.44Y-10.0
X21.44Y-22.31
X21.44Y-37.55
X21.5Y-44.577
X23.5Y-44.577
X23.98Y5.24
X23.98Y-10.0
X23.98Y-22.31
X23.98Y-37.55
X25.5Y-44.577
X26.52Y5.24
X26.52Y-10.0
X26.52Y-22.31
X26.52Y-37.55
X33.0Y-29.0
X35.867Y-31.008
X54.1Y39.6
X56.6Y39.6
X57.0Y-28.1
X59.5Y-28.1
X87.695Y44.2
X87.695Y41.4
X89.795Y44.2
X92.395Y44.2
X94.495Y44.2
X94.495Y41.4
X122.7Y42.7
X122.7Y40.7
X122.7Y38.7
X123.39Y-18.025
X123.39Y-22.275
X123.39Y-26.6
X123.39Y-30.85
X123.39Y-35.175
X123.39Y-39.425
T6
X104.93Y-34.17
X104.93Y-36.79
X106.215Y42.997
X106.215Y40.377
X107.43Y-34.17
X107.43Y-36.79
X108.715Y42.997
X108.715Y40.377
X109.43Y-34.17
X109.43Y-36.79
X110.715Y42.997
X110.715Y40.377
X111.93Y-34.17
X111.93Y-36.79
X113.215Y42.997
X113.215Y40.377
T7
X21.74Y47.78
X22.885Y49.76
X22.885Y45.8
X24.03Y47.78
X25.175Y49.76
X25.175Y45.8
X26.32Y47.78
X27.465Y49.76
X27.465Y45.8
X28.61Y47.78
X29.755Y49.76
X29.755Y45.8
X30.9Y47.78
X31.8Y10.125
X31.8Y7.585
X31.8Y5.045
X32.045Y49.76
X32.045Y45.8
X34.78Y-1.96
X34.78Y-4.5
X37.32Y-1.96
X37.32Y-4.5
X39.86Y-1.96
X39.86Y-4.5
X42.4Y-1.96
X42.4Y-4.5
X44.615Y-38.5
X44.94Y-1.96
X44.94Y-4.5
X46.0Y-41.34
X46.89Y27.85
X46.89Y25.31
X46.89Y22.77
X46.89Y20.23
X46.89Y17.69
X46.89Y15.15
X47.385Y-38.5
X47.48Y-1.96
X47.48Y-4.5
X48.77Y-41.34
X50.02Y-1.96
X50.02Y-4.5
X50.155Y-38.5
X51.54Y-41.34
X52.56Y-1.96
X52.56Y-4.5
X52.925Y-38.5
X54.31Y-41.34
X54.51Y27.85
X54.51Y25.31
X54.51Y22.77
X54.51Y20.23
X54.51Y17.69
X54.51Y15.15
X55.1Y-1.96
X55.1Y-4.5
X55.695Y-38.5
X57.64Y-1.96
X57.64Y-4.5
X60.18Y-1.96
X60.18Y-4.5
X62.72Y-1.96
X62.72Y-4.5
X65.26Y-1.96
X65.26Y-4.5
X67.8Y-1.96
X67.8Y-4.5
X68.5Y-13.7
X70.34Y-1.96
X70.34Y-4.5
X71.04Y-13.7
X72.88Y-1.96
X72.88Y-4.5
X75.42Y-1.96
X75.42Y-4.5
X76.525Y-38.5
X77.91Y-41.34
X77.96Y-1.96
X77.96Y-4.5
X79.295Y-38.5
X80.5Y-1.96
X80.5Y-4.5
X80.68Y-41.34
X82.065Y-38.5
X83.04Y-1.96
X83.04Y-4.5
X83.45Y-41.34
X84.835Y-38.5
X86.22Y-41.34
X87.605Y-38.5
T8
X101.955Y-20.182
X101.955Y-22.722
X101.955Y-25.262
X101.955Y-27.802
X104.495Y-20.182
X104.495Y-22.722
X104.495Y-25.262
X104.495Y-27.802
T9
X19.4Y-44.577
X27.6Y-44.577
X122.7Y44.8
X122.7Y36.6
T10
X-16.6Y44.15
X-14.1Y44.15
X-11.6Y49.15
X-9.1Y44.15
X-6.6Y44.15
X-2.2Y44.15
X0.3Y44.15
X2.8Y49.15
X5.3Y44.15
X7.8Y44.15
X53.645Y45.0
T11
X101.86Y-33.82
X101.86Y-39.5
X103.145Y45.707
X103.145Y40.027
X115.0Y-33.82
X115.0Y-39.5
X116.285Y45.707
X116.285Y40.027
T12
X48.645Y45.0
X53.645Y49.5
X58.645Y45.0
T13
X14.7Y47.85
X37.655Y-40.0
X39.7Y47.85
X62.655Y-40.0
X69.565Y-40.0
X94.565Y-40.0
T2
G00X119.065Y7.72
M15
G01X120.165Y7.72
M16
G05
G00X119.065Y-0.92
M15
G01X120.165Y-0.92
M16
G05
G00X123.495Y7.72
M15
G01X124.095Y7.72
M16
G05
G00X123.495Y-0.92
M15
G01X124.095Y-0.92
M16
G05
T5
G00X64.595Y50.86
M15
G01X64.595Y51.66
M16
G05
G00X64.595Y44.4
M15
G01X64.595Y46.2
M16
G05
G00X79.095Y50.86
M15
G01X79.095Y51.66
M16
G05
G00X79.095Y44.4
M15
G01X79.095Y46.2
M16
G05
T7
G00X84.245Y46.3
M15
G01X84.245Y47.8
M16
G05
G00X92.095Y47.85
M15
G01X90.095Y47.85
M16
G05
G00X97.945Y46.3
M15
G01X97.945Y47.8
M16
G05
G00X111.0Y-12.25
M15
G01X111.0Y-9.75
M16
G05
G00X115.0Y-6.3
M15
G01X113.0Y-6.3
M16
G05
G00X117.0Y-12.0
M15
G01X117.0Y-10.0
M16
G05
M30
