G04 #@! TF.GenerationSoftware,KiCad,Pcbnew,10.0.4-10.0.4~ubuntu26.04.1*
G04 #@! TF.CreationDate,2026-07-21T17:30:47+05:00*
G04 #@! TF.ProjectId,megafrank,6d656761-6672-4616-9e6b-2e6b69636164,1.02-U4*
G04 #@! TF.SameCoordinates,PX5f5e100PY5f5e100*
G04 #@! TF.FileFunction,Paste,Bot*
G04 #@! TF.FilePolarity,Positive*
%FSLAX46Y46*%
G04 Gerber Fmt 4.6, Leading zero omitted, Abs format (unit mm)*
G04 Created by KiCad (PCBNEW 10.0.4-10.0.4~ubuntu26.04.1) date 2026-07-21 17:30:47*
%MOMM*%
%LPD*%
G01*
G04 APERTURE LIST*
G04 Aperture macros list*
%AMRoundRect*
0 Rectangle with rounded corners*
0 $1 Rounding radius*
0 $2 $3 $4 $5 $6 $7 $8 $9 X,Y pos of 4 corners*
0 Add a 4 corners polygon primitive as box body*
4,1,4,$2,$3,$4,$5,$6,$7,$8,$9,$2,$3,0*
0 Add four circle primitives for the rounded corners*
1,1,$1+$1,$2,$3*
1,1,$1+$1,$4,$5*
1,1,$1+$1,$6,$7*
1,1,$1+$1,$8,$9*
0 Add four rect primitives between the rounded corners*
20,1,$1+$1,$2,$3,$4,$5,0*
20,1,$1+$1,$4,$5,$6,$7,0*
20,1,$1+$1,$6,$7,$8,$9,0*
20,1,$1+$1,$8,$9,$2,$3,0*%
G04 Aperture macros list end*
%ADD10RoundRect,0.250000X-0.450000X0.262500X-0.450000X-0.262500X0.450000X-0.262500X0.450000X0.262500X0*%
%ADD11RoundRect,0.250000X0.450000X-0.262500X0.450000X0.262500X-0.450000X0.262500X-0.450000X-0.262500X0*%
%ADD12RoundRect,0.250000X0.262500X0.450000X-0.262500X0.450000X-0.262500X-0.450000X0.262500X-0.450000X0*%
%ADD13RoundRect,0.250000X0.250000X0.475000X-0.250000X0.475000X-0.250000X-0.475000X0.250000X-0.475000X0*%
%ADD14RoundRect,0.250000X0.454006X0.286362X0.020994X0.536362X-0.454006X-0.286362X-0.020994X-0.536362X0*%
%ADD15RoundRect,0.250000X-0.475000X0.250000X-0.475000X-0.250000X0.475000X-0.250000X0.475000X0.250000X0*%
%ADD16R,0.650000X1.525000*%
%ADD17RoundRect,0.250000X0.475000X-0.250000X0.475000X0.250000X-0.475000X0.250000X-0.475000X-0.250000X0*%
%ADD18RoundRect,0.150000X0.725000X0.150000X-0.725000X0.150000X-0.725000X-0.150000X0.725000X-0.150000X0*%
%ADD19R,1.525000X0.700000*%
%ADD20R,2.560000X3.450000*%
%ADD21RoundRect,0.250000X-0.262500X-0.450000X0.262500X-0.450000X0.262500X0.450000X-0.262500X0.450000X0*%
%ADD22RoundRect,0.150000X-0.150000X0.587500X-0.150000X-0.587500X0.150000X-0.587500X0.150000X0.587500X0*%
%ADD23RoundRect,0.250000X-0.250000X-0.475000X0.250000X-0.475000X0.250000X0.475000X-0.250000X0.475000X0*%
%ADD24RoundRect,0.150000X-0.150000X0.850000X-0.150000X-0.850000X0.150000X-0.850000X0.150000X0.850000X0*%
%ADD25RoundRect,0.150000X-0.850000X-0.150000X0.850000X-0.150000X0.850000X0.150000X-0.850000X0.150000X0*%
%ADD26RoundRect,0.250000X0.250000X0.250000X-0.250000X0.250000X-0.250000X-0.250000X0.250000X-0.250000X0*%
%ADD27RoundRect,0.150000X0.150000X-0.850000X0.150000X0.850000X-0.150000X0.850000X-0.150000X-0.850000X0*%
%ADD28RoundRect,0.250000X-0.250000X-0.250000X0.250000X-0.250000X0.250000X0.250000X-0.250000X0.250000X0*%
%ADD29R,1.525000X0.650000*%
%ADD30R,1.330000X0.530000*%
%ADD31RoundRect,0.150000X0.150000X-0.725000X0.150000X0.725000X-0.150000X0.725000X-0.150000X-0.725000X0*%
%ADD32RoundRect,0.375000X0.375000X-0.625000X0.375000X0.625000X-0.375000X0.625000X-0.375000X-0.625000X0*%
%ADD33RoundRect,0.500000X1.400000X-0.500000X1.400000X0.500000X-1.400000X0.500000X-1.400000X-0.500000X0*%
G04 APERTURE END LIST*
D10*
X14100000Y-30387500D03*
X14100000Y-32212500D03*
D11*
X-5100000Y30300000D03*
X-5100000Y32125000D03*
D12*
X123435000Y4500000D03*
X121610000Y4500000D03*
D13*
X-14600000Y34400000D03*
X-16500000Y34400000D03*
D10*
X64645000Y40900000D03*
X64645000Y39075000D03*
D12*
X13912500Y-14000000D03*
X12087500Y-14000000D03*
D10*
X59600000Y3012500D03*
X59600000Y1187500D03*
X-18300000Y-31987500D03*
X-18300000Y-33812500D03*
D11*
X-1100000Y35275000D03*
X-1100000Y37100000D03*
D13*
X117750000Y19500000D03*
X115850000Y19500000D03*
D14*
X34610000Y-35040000D03*
X32964552Y-34090000D03*
D15*
X115400000Y35350000D03*
X115400000Y33450000D03*
D12*
X-10487500Y-31700000D03*
X-12312500Y-31700000D03*
X51600000Y-32400000D03*
X49775000Y-32400000D03*
X-17187500Y14330000D03*
X-19012500Y14330000D03*
X-8327500Y8400000D03*
X-10152500Y8400000D03*
D16*
X95510000Y32988000D03*
X94240000Y32988000D03*
X92970000Y32988000D03*
X91700000Y32988000D03*
X90430000Y32988000D03*
X89160000Y32988000D03*
X87890000Y32988000D03*
X87890000Y38412000D03*
X89160000Y38412000D03*
X90430000Y38412000D03*
X91700000Y38412000D03*
X92970000Y38412000D03*
X94240000Y38412000D03*
X95510000Y38412000D03*
D12*
X5337500Y-19600000D03*
X3512500Y-19600000D03*
D17*
X113000000Y45950000D03*
X113000000Y47850000D03*
D11*
X1400000Y35375000D03*
X1400000Y37200000D03*
D10*
X4400000Y30000000D03*
X4400000Y28175000D03*
D12*
X-2287500Y-19600000D03*
X-4112500Y-19600000D03*
X11500000Y16282500D03*
X9675000Y16282500D03*
D11*
X-3600000Y10857500D03*
X-3600000Y12682500D03*
D18*
X7350000Y14092500D03*
X7350000Y12822500D03*
X7350000Y11552500D03*
X7350000Y10282500D03*
X2200000Y10282500D03*
X2200000Y11552500D03*
X2200000Y12822500D03*
X2200000Y14092500D03*
D10*
X-2900000Y19370000D03*
X-2900000Y17545000D03*
D11*
X25288000Y24340000D03*
X25288000Y26165000D03*
D10*
X63700000Y5512500D03*
X63700000Y3687500D03*
X7400000Y26757500D03*
X7400000Y24932500D03*
X-10500000Y-900000D03*
X-10500000Y-2725000D03*
D13*
X21100000Y-19050000D03*
X19200000Y-19050000D03*
D17*
X-22400000Y-19750000D03*
X-22400000Y-17850000D03*
D19*
X43600000Y-25290000D03*
X43600000Y-26560000D03*
X43600000Y-27830000D03*
X43600000Y-29100000D03*
X38176000Y-29100000D03*
X38176000Y-27830000D03*
X38176000Y-26560000D03*
X38176000Y-25290000D03*
D20*
X40888000Y-27195000D03*
D10*
X107020000Y-28280000D03*
X107020000Y-30105000D03*
D13*
X74500000Y46900000D03*
X72600000Y46900000D03*
D10*
X109180000Y-28260000D03*
X109180000Y-30085000D03*
X19300000Y11982500D03*
X19300000Y10157500D03*
X29145000Y36800000D03*
X29145000Y34975000D03*
X40145000Y36775000D03*
X40145000Y34950000D03*
D12*
X41345000Y29900000D03*
X39520000Y29900000D03*
D17*
X-20460000Y24012500D03*
X-20460000Y25912500D03*
D11*
X29933300Y40367000D03*
X29933300Y42192000D03*
D13*
X56300000Y-32500000D03*
X54400000Y-32500000D03*
D21*
X48000000Y-24800000D03*
X49825000Y-24800000D03*
D22*
X14700000Y-18200000D03*
X16600000Y-18200000D03*
X15650000Y-20075000D03*
D21*
X36720000Y32100000D03*
X38545000Y32100000D03*
D12*
X1925000Y22900000D03*
X100000Y22900000D03*
D23*
X10950000Y-19200000D03*
X12850000Y-19200000D03*
D12*
X-14375000Y2100000D03*
X-16200000Y2100000D03*
D11*
X-22800000Y25900000D03*
X-22800000Y27725000D03*
D24*
X-7470000Y100000D03*
X-6200000Y100000D03*
X-4930000Y100000D03*
X-3660000Y100000D03*
X-2390000Y100000D03*
X-1120000Y100000D03*
X150000Y100000D03*
X1420000Y100000D03*
X1420000Y-4900000D03*
X150000Y-4900000D03*
X-1120000Y-4900000D03*
X-2390000Y-4900000D03*
X-3660000Y-4900000D03*
X-4930000Y-4900000D03*
X-6200000Y-4900000D03*
X-7470000Y-4900000D03*
D23*
X17188000Y29940000D03*
X19088000Y29940000D03*
D10*
X35745000Y36775000D03*
X35745000Y34950000D03*
D11*
X81600000Y32887500D03*
X81600000Y34712500D03*
D12*
X11012500Y-44300000D03*
X9187500Y-44300000D03*
D23*
X-19700000Y17400000D03*
X-17800000Y17400000D03*
D11*
X85200000Y33087500D03*
X85200000Y34912500D03*
D25*
X99300000Y6590000D03*
X99300000Y7860000D03*
X99300000Y9130000D03*
X99300000Y10400000D03*
X99300000Y11670000D03*
X99300000Y12940000D03*
X99300000Y14210000D03*
X99300000Y15480000D03*
X104300000Y15480000D03*
X104300000Y14210000D03*
X104300000Y12940000D03*
X104300000Y11670000D03*
X104300000Y10400000D03*
X104300000Y9130000D03*
X104300000Y7860000D03*
X104300000Y6590000D03*
D21*
X175000Y20700000D03*
X2000000Y20700000D03*
D11*
X-11900000Y-16412500D03*
X-11900000Y-14587500D03*
D10*
X-10100000Y-26287500D03*
X-10100000Y-28112500D03*
D21*
X50075000Y-27900000D03*
X51900000Y-27900000D03*
D11*
X-3900000Y-14600000D03*
X-3900000Y-12775000D03*
D15*
X-16100000Y25900000D03*
X-16100000Y24000000D03*
D23*
X97150000Y42700000D03*
X99050000Y42700000D03*
D26*
X74500000Y49100000D03*
X72000000Y49100000D03*
D10*
X14300000Y19282500D03*
X14300000Y17457500D03*
D11*
X18945000Y40375000D03*
X18945000Y42200000D03*
X32155700Y40357800D03*
X32155700Y42182800D03*
D10*
X111330000Y-28260000D03*
X111330000Y-30085000D03*
D11*
X93800000Y27987500D03*
X93800000Y29812500D03*
D10*
X75145000Y40925000D03*
X75145000Y39100000D03*
D21*
X10787500Y-25100000D03*
X12612500Y-25100000D03*
D23*
X54400000Y-30300000D03*
X56300000Y-30300000D03*
D11*
X-4900000Y26000000D03*
X-4900000Y27825000D03*
D21*
X31045000Y29900000D03*
X32870000Y29900000D03*
D10*
X70945000Y40900000D03*
X70945000Y39075000D03*
D12*
X11812500Y33145000D03*
X9987500Y33145000D03*
X123435000Y2200000D03*
X121610000Y2200000D03*
X8600000Y36700000D03*
X6775000Y36700000D03*
D11*
X-6500000Y-14612500D03*
X-6500000Y-12787500D03*
D10*
X113490000Y-28250000D03*
X113490000Y-30075000D03*
D17*
X16900000Y32620000D03*
X16900000Y34520000D03*
D27*
X1545000Y-30900000D03*
X275000Y-30900000D03*
X-995000Y-30900000D03*
X-2265000Y-30900000D03*
X-3535000Y-30900000D03*
X-4805000Y-30900000D03*
X-6075000Y-30900000D03*
X-7345000Y-30900000D03*
X-7345000Y-25900000D03*
X-6075000Y-25900000D03*
X-4805000Y-25900000D03*
X-3535000Y-25900000D03*
X-2265000Y-25900000D03*
X-995000Y-25900000D03*
X275000Y-25900000D03*
X1545000Y-25900000D03*
D28*
X-12750000Y-34100000D03*
X-10250000Y-34100000D03*
D11*
X104300000Y33875000D03*
X104300000Y35700000D03*
X-8900000Y-14612500D03*
X-8900000Y-12787500D03*
X-2900000Y-35212500D03*
X-2900000Y-33387500D03*
D12*
X98312500Y-20440000D03*
X96487500Y-20440000D03*
X98285000Y-24780000D03*
X96460000Y-24780000D03*
D17*
X-22200000Y7900000D03*
X-22200000Y9800000D03*
D12*
X68412500Y-33200000D03*
X66587500Y-33200000D03*
D29*
X23100000Y27410000D03*
X23100000Y26140000D03*
X23100000Y24870000D03*
X23100000Y23600000D03*
X23100000Y22330000D03*
X23100000Y21060000D03*
X23100000Y19790000D03*
X17676000Y19790000D03*
X17676000Y21060000D03*
X17676000Y22330000D03*
X17676000Y23600000D03*
X17676000Y24870000D03*
X17676000Y26140000D03*
X17676000Y27410000D03*
D23*
X-8725000Y-7245000D03*
X-6825000Y-7245000D03*
D17*
X4360000Y17050000D03*
X4360000Y18950000D03*
D10*
X107800000Y15912500D03*
X107800000Y14087500D03*
D11*
X6200000Y-14612500D03*
X6200000Y-12787500D03*
D10*
X66745000Y40900000D03*
X66745000Y39075000D03*
D15*
X60700000Y-11450000D03*
X60700000Y-13350000D03*
D12*
X98302500Y-27060000D03*
X96477500Y-27060000D03*
D10*
X16800000Y17182500D03*
X16800000Y15357500D03*
D17*
X-1200000Y12382500D03*
X-1200000Y14282500D03*
D12*
X36970000Y27100000D03*
X35145000Y27100000D03*
D21*
X-17500000Y32100000D03*
X-15675000Y32100000D03*
X114310000Y4800000D03*
X116135000Y4800000D03*
D26*
X-5350000Y-34100000D03*
X-7850000Y-34100000D03*
D10*
X35800000Y-21700000D03*
X35800000Y-23525000D03*
X33545000Y36800000D03*
X33545000Y34975000D03*
D17*
X14300000Y21382500D03*
X14300000Y23282500D03*
D21*
X-14912500Y19710000D03*
X-13087500Y19710000D03*
D23*
X39000000Y-23100000D03*
X40900000Y-23100000D03*
D10*
X50290000Y27230000D03*
X50290000Y25405000D03*
D11*
X21145000Y40350000D03*
X21145000Y42175000D03*
D13*
X116990000Y390000D03*
X115090000Y390000D03*
D10*
X79345000Y40900000D03*
X79345000Y39075000D03*
D23*
X114650000Y-1750000D03*
X116550000Y-1750000D03*
D10*
X73000000Y19212500D03*
X73000000Y17387500D03*
D12*
X-10275000Y1300000D03*
X-12100000Y1300000D03*
D10*
X-13200000Y-4187500D03*
X-13200000Y-6012500D03*
D11*
X85750000Y-3012500D03*
X85750000Y-1187500D03*
D10*
X45100000Y36812500D03*
X45100000Y34987500D03*
X77245000Y40925000D03*
X77245000Y39100000D03*
D29*
X20588000Y-33851400D03*
X20588000Y-32581400D03*
X20588000Y-31311400D03*
X20588000Y-30041400D03*
X20588000Y-28771400D03*
X20588000Y-27501400D03*
X20588000Y-26231400D03*
X26012000Y-26231400D03*
X26012000Y-27501400D03*
X26012000Y-28771400D03*
X26012000Y-30041400D03*
X26012000Y-31311400D03*
X26012000Y-32581400D03*
X26012000Y-33851400D03*
D12*
X23613000Y29940000D03*
X21788000Y29940000D03*
D30*
X88150000Y-2640000D03*
X88150000Y-1370000D03*
X88150000Y-100000D03*
X91200000Y-100000D03*
X91200000Y-1370000D03*
X91200000Y-2640000D03*
D12*
X9212500Y-19600000D03*
X7387500Y-19600000D03*
D10*
X36000000Y48112500D03*
X36000000Y46287500D03*
D11*
X33000000Y-24912500D03*
X33000000Y-23087500D03*
D24*
X-14945000Y16470000D03*
X-13675000Y16470000D03*
X-12405000Y16470000D03*
X-11135000Y16470000D03*
X-9865000Y16470000D03*
X-8595000Y16470000D03*
X-7325000Y16470000D03*
X-6055000Y16470000D03*
X-6055000Y11470000D03*
X-7325000Y11470000D03*
X-8595000Y11470000D03*
X-9865000Y11470000D03*
X-11135000Y11470000D03*
X-12405000Y11470000D03*
X-13675000Y11470000D03*
X-14945000Y11470000D03*
D15*
X97870000Y38712000D03*
X97870000Y36812000D03*
D11*
X25545000Y40350000D03*
X25545000Y42175000D03*
D12*
X37445000Y29900000D03*
X35620000Y29900000D03*
D15*
X-1200000Y10582500D03*
X-1200000Y8682500D03*
D21*
X-9752500Y19600000D03*
X-7927500Y19600000D03*
D31*
X1870000Y26700000D03*
X600000Y26700000D03*
X-670000Y26700000D03*
X-1940000Y26700000D03*
X-1940000Y31850000D03*
X-670000Y31850000D03*
X600000Y31850000D03*
X1870000Y31850000D03*
D11*
X84800000Y23287500D03*
X84800000Y25112500D03*
D21*
X121475000Y-3550000D03*
X123300000Y-3550000D03*
D10*
X-22400000Y17325000D03*
X-22400000Y15500000D03*
D23*
X36650000Y-33000000D03*
X38550000Y-33000000D03*
D11*
X23345000Y40375000D03*
X23345000Y42200000D03*
D23*
X6770000Y29820000D03*
X8670000Y29820000D03*
D15*
X104200000Y20550000D03*
X104200000Y18650000D03*
D12*
X22713000Y32340000D03*
X20888000Y32340000D03*
D21*
X114310000Y2600000D03*
X116135000Y2600000D03*
X-19625000Y19600000D03*
X-17800000Y19600000D03*
D13*
X6200000Y32800000D03*
X4300000Y32800000D03*
D10*
X13700000Y13582500D03*
X13700000Y11757500D03*
D11*
X-1400000Y-14612500D03*
X-1400000Y-12787500D03*
D12*
X98312500Y-18225000D03*
X96487500Y-18225000D03*
D10*
X31345000Y36800000D03*
X31345000Y34975000D03*
D11*
X106500000Y33887500D03*
X106500000Y35712500D03*
D17*
X4400000Y22800000D03*
X4400000Y24700000D03*
D21*
X800000Y-43900000D03*
X2625000Y-43900000D03*
D10*
X73045000Y40925000D03*
X73045000Y39100000D03*
X37945000Y36750000D03*
X37945000Y34925000D03*
D24*
X100355000Y28100000D03*
X101625000Y28100000D03*
X102895000Y28100000D03*
X104165000Y28100000D03*
X105435000Y28100000D03*
X106705000Y28100000D03*
X107975000Y28100000D03*
X109245000Y28100000D03*
X109245000Y23100000D03*
X107975000Y23100000D03*
X106705000Y23100000D03*
X105435000Y23100000D03*
X104165000Y23100000D03*
X102895000Y23100000D03*
X101625000Y23100000D03*
X100355000Y23100000D03*
D10*
X14700000Y-26687500D03*
X14700000Y-28512500D03*
D11*
X-23240000Y29787500D03*
X-23240000Y31612500D03*
X8700000Y-14625000D03*
X8700000Y-12800000D03*
D23*
X-5200000Y38600000D03*
X-3300000Y38600000D03*
D21*
X-16225000Y-12800000D03*
X-14400000Y-12800000D03*
D11*
X1100000Y-14612500D03*
X1100000Y-12787500D03*
X108750000Y33887500D03*
X108750000Y35712500D03*
D12*
X-9800000Y-19600000D03*
X-11625000Y-19600000D03*
D11*
X3700000Y-14612500D03*
X3700000Y-12787500D03*
D23*
X105810000Y-41970000D03*
X107710000Y-41970000D03*
D12*
X98302500Y-22650000D03*
X96477500Y-22650000D03*
D10*
X-15300000Y-31987500D03*
X-15300000Y-33812500D03*
X-13400000Y-26987500D03*
X-13400000Y-28812500D03*
D23*
X-9800000Y34200000D03*
X-7900000Y34200000D03*
D12*
X48325000Y-30100000D03*
X46500000Y-30100000D03*
X1712500Y-34500000D03*
X-112500Y-34500000D03*
D15*
X106900000Y8660000D03*
X106900000Y6760000D03*
D10*
X27745000Y42200000D03*
X27745000Y40375000D03*
D23*
X59493600Y-16249500D03*
X61393600Y-16249500D03*
D12*
X32945000Y32300000D03*
X31120000Y32300000D03*
D15*
X85470000Y38712000D03*
X85470000Y36812000D03*
D17*
X-20540000Y29950000D03*
X-20540000Y31850000D03*
D10*
X-16600000Y-5487500D03*
X-16600000Y-7312500D03*
D17*
X97870000Y32912000D03*
X97870000Y34812000D03*
D25*
X-13100000Y22400000D03*
X-13100000Y23670000D03*
X-13100000Y24940000D03*
X-13100000Y26210000D03*
X-13100000Y27480000D03*
X-13100000Y28750000D03*
X-13100000Y30020000D03*
X-13100000Y31290000D03*
X-8100000Y31290000D03*
X-8100000Y30020000D03*
X-8100000Y28750000D03*
X-8100000Y27480000D03*
X-8100000Y26210000D03*
X-8100000Y24940000D03*
X-8100000Y23670000D03*
X-8100000Y22400000D03*
D21*
X10287500Y2200000D03*
X12112500Y2200000D03*
D12*
X88225000Y-31400000D03*
X86400000Y-31400000D03*
D10*
X68845000Y40900000D03*
X68845000Y39075000D03*
D15*
X16000000Y13657500D03*
X16000000Y11757500D03*
D21*
X9900000Y21382500D03*
X11725000Y21382500D03*
X9900000Y19082500D03*
X11725000Y19082500D03*
D23*
X105760000Y-39730000D03*
X107660000Y-39730000D03*
D21*
X-5100000Y35800000D03*
X-3275000Y35800000D03*
D12*
X-5987500Y-19600000D03*
X-7812500Y-19600000D03*
D11*
X111000000Y33887500D03*
X111000000Y35712500D03*
D23*
X3850000Y-25900000D03*
X5750000Y-25900000D03*
D11*
X-21700000Y-30125000D03*
X-21700000Y-28300000D03*
D31*
X58472515Y-13251185D03*
X57202515Y-13251185D03*
X55932515Y-13251185D03*
X54662515Y-13251185D03*
X54662515Y-8101185D03*
X55932515Y-8101185D03*
X57202515Y-8101185D03*
X58472515Y-8101185D03*
D13*
X-13000000Y9070000D03*
X-14900000Y9070000D03*
D12*
X1512500Y-19600000D03*
X-312500Y-19600000D03*
D10*
X42345000Y36775000D03*
X42345000Y34950000D03*
D12*
X-14787500Y-41200000D03*
X-16612500Y-41200000D03*
D10*
X55293600Y-20849500D03*
X55293600Y-22674500D03*
D11*
X11300000Y11757500D03*
X11300000Y13582500D03*
D32*
X63100000Y-25350000D03*
X60800000Y-25350000D03*
D33*
X60800000Y-19050000D03*
D32*
X58500000Y-25350000D03*
D21*
X46475000Y-27900000D03*
X48300000Y-27900000D03*
M02*
