G04 #@! TF.GenerationSoftware,KiCad,Pcbnew,10.0.4-10.0.4~ubuntu26.04.1*
G04 #@! TF.CreationDate,2026-07-21T18:13:45+05:00*
G04 #@! TF.ProjectId,megafrank,6d656761-6672-4616-9e6b-2e6b69636164,1.02-U4*
G04 #@! TF.SameCoordinates,PX5f5e100PY5f5e100*
G04 #@! TF.FileFunction,Soldermask,Bot*
G04 #@! TF.FilePolarity,Negative*
%FSLAX46Y46*%
G04 Gerber Fmt 4.6, Leading zero omitted, Abs format (unit mm)*
G04 Created by KiCad (PCBNEW 10.0.4-10.0.4~ubuntu26.04.1) date 2026-07-21 18:13:45*
%MOMM*%
%LPD*%
G01*
G04 APERTURE LIST*
G04 Aperture macros list*
%AMRoundRect*
0 Rectangle with rounded corners*
0 $1 Rounding radius*
0 $2 $3 $4 $5 $6 $7 $8 $9 X,Y pos of 4 corners*
0 Add a 4 corners polygon primitive as box body*
4,1,4,$2,$3,$4,$5,$6,$7,$8,$9,$2,$3,0*
0 Add four circle primitives for the rounded corners*
1,1,$1+$1,$2,$3*
1,1,$1+$1,$4,$5*
1,1,$1+$1,$6,$7*
1,1,$1+$1,$8,$9*
0 Add four rect primitives between the rounded corners*
20,1,$1+$1,$2,$3,$4,$5,0*
20,1,$1+$1,$4,$5,$6,$7,0*
20,1,$1+$1,$6,$7,$8,$9,0*
20,1,$1+$1,$8,$9,$2,$3,0*%
%AMFreePoly0*
4,1,23,0.500000,-0.750000,0.000000,-0.750000,0.000000,-0.745722,-0.065263,-0.745722,-0.191342,-0.711940,-0.304381,-0.646677,-0.396677,-0.554381,-0.461940,-0.441342,-0.495722,-0.315263,-0.495722,-0.250000,-0.500000,-0.250000,-0.500000,0.250000,-0.495722,0.250000,-0.495722,0.315263,-0.461940,0.441342,-0.396677,0.554381,-0.304381,0.646677,-0.191342,0.711940,-0.065263,0.745722,0.000000,0.745722,
0.000000,0.750000,0.500000,0.750000,0.500000,-0.750000,0.500000,-0.750000,$1*%
%AMFreePoly1*
4,1,23,0.000000,0.745722,0.065263,0.745722,0.191342,0.711940,0.304381,0.646677,0.396677,0.554381,0.461940,0.441342,0.495722,0.315263,0.495722,0.250000,0.500000,0.250000,0.500000,-0.250000,0.495722,-0.250000,0.495722,-0.315263,0.461940,-0.441342,0.396677,-0.554381,0.304381,-0.646677,0.191342,-0.711940,0.065263,-0.745722,0.000000,-0.745722,0.000000,-0.750000,-0.500000,-0.750000,
-0.500000,0.750000,0.000000,0.750000,0.000000,0.745722,0.000000,0.745722,$1*%
G04 Aperture macros list end*
%ADD10C,1.200000*%
%ADD11R,2.550000X2.550000*%
%ADD12C,2.300000*%
%ADD13C,0.900000*%
%ADD14RoundRect,0.350000X0.350000X1.300000X-0.350000X1.300000X-0.350000X-1.300000X0.350000X-1.300000X0*%
%ADD15RoundRect,0.350000X0.350000X0.700000X-0.350000X0.700000X-0.350000X-0.700000X0.350000X-0.700000X0*%
%ADD16C,2.700000*%
%ADD17RoundRect,0.250000X-0.550000X-0.550000X0.550000X-0.550000X0.550000X0.550000X-0.550000X0.550000X0*%
%ADD18C,1.600000*%
%ADD19R,1.700000X1.700000*%
%ADD20C,1.700000*%
%ADD21R,1.500000X1.500000*%
%ADD22C,1.500000*%
%ADD23RoundRect,0.250000X0.550000X-0.550000X0.550000X0.550000X-0.550000X0.550000X-0.550000X-0.550000X0*%
%ADD24RoundRect,0.250000X0.766001X0.135067X-0.135067X0.766001X-0.766001X-0.135067X0.135067X-0.766001X0*%
%ADD25C,0.650000*%
%ADD26O,2.100000X1.000000*%
%ADD27O,1.600000X1.000000*%
%ADD28RoundRect,0.250000X0.550000X0.550000X-0.550000X0.550000X-0.550000X-0.550000X0.550000X-0.550000X0*%
%ADD29C,1.524000*%
%ADD30RoundRect,0.225000X0.475000X-0.225000X0.475000X0.225000X-0.475000X0.225000X-0.475000X-0.225000X0*%
%ADD31O,1.400000X0.900000*%
%ADD32RoundRect,0.250000X0.350000X-0.350000X0.350000X0.350000X-0.350000X0.350000X-0.350000X-0.350000X0*%
%ADD33R,1.600000X1.600000*%
%ADD34O,2.000000X3.500000*%
%ADD35O,4.000000X2.000000*%
%ADD36R,1.300000X1.300000*%
%ADD37C,1.300000*%
%ADD38C,1.875000*%
%ADD39O,1.700000X1.700000*%
%ADD40RoundRect,0.225000X0.225000X0.475000X-0.225000X0.475000X-0.225000X-0.475000X0.225000X-0.475000X0*%
%ADD41O,0.900000X1.400000*%
%ADD42C,4.000000*%
%ADD43O,2.404000X4.604000*%
%ADD44O,2.204000X4.204000*%
%ADD45O,4.204000X2.204000*%
%ADD46C,1.050000*%
%ADD47R,1.727200X1.727200*%
%ADD48O,1.727200X1.727200*%
%ADD49C,2.500000*%
%ADD50C,3.750000*%
%ADD51C,3.500000*%
%ADD52C,1.000000*%
%ADD53RoundRect,0.250000X-0.450000X0.262500X-0.450000X-0.262500X0.450000X-0.262500X0.450000X0.262500X0*%
%ADD54RoundRect,0.250000X0.450000X-0.262500X0.450000X0.262500X-0.450000X0.262500X-0.450000X-0.262500X0*%
%ADD55RoundRect,0.250000X0.262500X0.450000X-0.262500X0.450000X-0.262500X-0.450000X0.262500X-0.450000X0*%
%ADD56RoundRect,0.250000X0.250000X0.475000X-0.250000X0.475000X-0.250000X-0.475000X0.250000X-0.475000X0*%
%ADD57FreePoly0,180.000000*%
%ADD58FreePoly1,180.000000*%
%ADD59RoundRect,0.250000X0.454006X0.286362X0.020994X0.536362X-0.454006X-0.286362X-0.020994X-0.536362X0*%
%ADD60RoundRect,0.250000X-0.475000X0.250000X-0.475000X-0.250000X0.475000X-0.250000X0.475000X0.250000X0*%
%ADD61R,0.650000X1.525000*%
%ADD62RoundRect,0.250000X0.475000X-0.250000X0.475000X0.250000X-0.475000X0.250000X-0.475000X-0.250000X0*%
%ADD63RoundRect,0.150000X0.725000X0.150000X-0.725000X0.150000X-0.725000X-0.150000X0.725000X-0.150000X0*%
%ADD64R,1.525000X0.700000*%
%ADD65R,2.560000X3.450000*%
%ADD66RoundRect,0.250000X-0.262500X-0.450000X0.262500X-0.450000X0.262500X0.450000X-0.262500X0.450000X0*%
%ADD67RoundRect,0.150000X-0.150000X0.587500X-0.150000X-0.587500X0.150000X-0.587500X0.150000X0.587500X0*%
%ADD68RoundRect,0.250000X-0.250000X-0.475000X0.250000X-0.475000X0.250000X0.475000X-0.250000X0.475000X0*%
%ADD69RoundRect,0.150000X-0.150000X0.850000X-0.150000X-0.850000X0.150000X-0.850000X0.150000X0.850000X0*%
%ADD70RoundRect,0.150000X-0.850000X-0.150000X0.850000X-0.150000X0.850000X0.150000X-0.850000X0.150000X0*%
%ADD71RoundRect,0.250000X0.250000X0.250000X-0.250000X0.250000X-0.250000X-0.250000X0.250000X-0.250000X0*%
%ADD72RoundRect,0.150000X0.150000X-0.850000X0.150000X0.850000X-0.150000X0.850000X-0.150000X-0.850000X0*%
%ADD73RoundRect,0.250000X-0.250000X-0.250000X0.250000X-0.250000X0.250000X0.250000X-0.250000X0.250000X0*%
%ADD74R,1.525000X0.650000*%
%ADD75FreePoly0,0.000000*%
%ADD76FreePoly1,0.000000*%
%ADD77R,1.330000X0.530000*%
%ADD78RoundRect,0.150000X0.150000X-0.725000X0.150000X0.725000X-0.150000X0.725000X-0.150000X-0.725000X0*%
%ADD79RoundRect,0.375000X0.375000X-0.625000X0.375000X0.625000X-0.375000X0.625000X-0.375000X-0.625000X0*%
%ADD80RoundRect,0.500000X1.400000X-0.500000X1.400000X0.500000X-1.400000X0.500000X-1.400000X-0.500000X0*%
G04 APERTURE END LIST*
G36*
X70845000Y-6855000D02*
G01*
X71145000Y-6855000D01*
X71145000Y-8355000D01*
X70845000Y-8355000D01*
X70845000Y-6855000D01*
G37*
G36*
X65900000Y-6650000D02*
G01*
X66200000Y-6650000D01*
X66200000Y-8150000D01*
X65900000Y-8150000D01*
X65900000Y-6650000D01*
G37*
D10*
X-2200000Y51650000D03*
X-2200000Y49150000D03*
X2800000Y44150000D03*
X7800000Y51650000D03*
X7800000Y49150000D03*
D11*
X2800000Y49150000D03*
D12*
X-2200000Y44150000D03*
X7800000Y44150000D03*
X300000Y44150000D03*
X5300000Y44150000D03*
D13*
X123390000Y-39425017D03*
X123390000Y-35175017D03*
D14*
X79095000Y45300000D03*
D15*
X79095000Y51260000D03*
X64595000Y51260000D03*
D14*
X64595000Y45300000D03*
D16*
X-22000000Y-43800000D03*
D17*
X54100000Y39600000D03*
D18*
X56600000Y39600000D03*
D19*
X34780000Y-4500000D03*
D20*
X34780000Y-1960000D03*
X37320000Y-4500000D03*
X37320000Y-1960000D03*
X39860000Y-4500000D03*
X39860000Y-1960000D03*
X42400000Y-4500000D03*
X42400000Y-1960000D03*
X44940000Y-4500000D03*
X44940000Y-1960000D03*
X47480000Y-4500000D03*
X47480000Y-1960000D03*
X50020000Y-4500000D03*
X50020000Y-1960000D03*
X52560000Y-4500000D03*
X52560000Y-1960000D03*
X55100000Y-4500000D03*
X55100000Y-1960000D03*
X57640000Y-4500000D03*
X57640000Y-1960000D03*
X60180000Y-4500000D03*
X60180000Y-1960000D03*
X62720000Y-4500000D03*
X62720000Y-1960000D03*
X65260000Y-4500000D03*
X65260000Y-1960000D03*
X67800000Y-4500000D03*
X67800000Y-1960000D03*
X70340000Y-4500000D03*
X70340000Y-1960000D03*
X72880000Y-4500000D03*
X72880000Y-1960000D03*
X75420000Y-4500000D03*
X75420000Y-1960000D03*
X77960000Y-4500000D03*
X77960000Y-1960000D03*
X80500000Y-4500000D03*
X80500000Y-1960000D03*
X83040000Y-4500000D03*
X83040000Y-1960000D03*
D21*
X46890000Y27850000D03*
D22*
X46890000Y25310000D03*
X46890000Y22770000D03*
X46890000Y20230000D03*
X46890000Y17690000D03*
X46890000Y15150000D03*
X54510000Y27850000D03*
X54510000Y25310000D03*
X54510000Y22770000D03*
X54510000Y20230000D03*
X54510000Y17690000D03*
X54510000Y15150000D03*
D23*
X-21740000Y-37550000D03*
D18*
X-19200000Y-37550000D03*
X-16660000Y-37550000D03*
X-14120000Y-37550000D03*
X-11580000Y-37550000D03*
X-9040000Y-37550000D03*
X-6500000Y-37550000D03*
X-3960000Y-37550000D03*
X-1420000Y-37550000D03*
X1120000Y-37550000D03*
X3660000Y-37550000D03*
X6200000Y-37550000D03*
X8740000Y-37550000D03*
X11280000Y-37550000D03*
X13820000Y-37550000D03*
X16360000Y-37550000D03*
X18900000Y-37550000D03*
X21440000Y-37550000D03*
X23980000Y-37550000D03*
X26520000Y-37550000D03*
X26520000Y-22310000D03*
X23980000Y-22310000D03*
X21440000Y-22310000D03*
X18900000Y-22310000D03*
X16360000Y-22310000D03*
X13820000Y-22310000D03*
X11280000Y-22310000D03*
X8740000Y-22310000D03*
X6200000Y-22310000D03*
X3660000Y-22310000D03*
X1120000Y-22310000D03*
X-1420000Y-22310000D03*
X-3960000Y-22310000D03*
X-6500000Y-22310000D03*
X-9040000Y-22310000D03*
X-11580000Y-22310000D03*
X-14120000Y-22310000D03*
X-16660000Y-22310000D03*
X-19200000Y-22310000D03*
X-21740000Y-22310000D03*
D24*
X35867032Y-31007518D03*
D18*
X33000000Y-29000000D03*
D16*
X-22000000Y49800000D03*
D23*
X-21740000Y-10000000D03*
D18*
X-19200000Y-10000000D03*
X-16660000Y-10000000D03*
X-14120000Y-10000000D03*
X-11580000Y-10000000D03*
X-9040000Y-10000000D03*
X-6500000Y-10000000D03*
X-3960000Y-10000000D03*
X-1420000Y-10000000D03*
X1120000Y-10000000D03*
X3660000Y-10000000D03*
X6200000Y-10000000D03*
X8740000Y-10000000D03*
X11280000Y-10000000D03*
X13820000Y-10000000D03*
X16360000Y-10000000D03*
X18900000Y-10000000D03*
X21440000Y-10000000D03*
X23980000Y-10000000D03*
X26520000Y-10000000D03*
X26520000Y5240000D03*
X23980000Y5240000D03*
X21440000Y5240000D03*
X18900000Y5240000D03*
X16360000Y5240000D03*
X13820000Y5240000D03*
X11280000Y5240000D03*
X8740000Y5240000D03*
X6200000Y5240000D03*
X3660000Y5240000D03*
X1120000Y5240000D03*
X-1420000Y5240000D03*
X-3960000Y5240000D03*
X-6500000Y5240000D03*
X-9040000Y5240000D03*
X-11580000Y5240000D03*
X-14120000Y5240000D03*
X-16660000Y5240000D03*
X-19200000Y5240000D03*
X-21740000Y5240000D03*
D25*
X120145000Y510000D03*
X120145000Y6290000D03*
D26*
X119615000Y-920000D03*
D27*
X123795000Y-920000D03*
D26*
X119615000Y7720000D03*
D27*
X123795000Y7720000D03*
D16*
X121900000Y-43800000D03*
D28*
X-15817600Y30000000D03*
D18*
X-18317600Y30000000D03*
D23*
X-19400000Y9687600D03*
D18*
X-19400000Y12187600D03*
D23*
X-19500000Y-17400000D03*
D18*
X-19500000Y-14900000D03*
D13*
X123390000Y-22275000D03*
X123390000Y-18025000D03*
D29*
X90230000Y30120000D03*
X87690000Y27580000D03*
X87690000Y30120000D03*
X85150000Y27580000D03*
X85150000Y30120000D03*
X82610000Y27580000D03*
X82610000Y30120000D03*
X80070000Y27580000D03*
X80070000Y30120000D03*
X77530000Y27580000D03*
X77530000Y30120000D03*
X74990000Y27580000D03*
X74990000Y30120000D03*
X72450000Y27580000D03*
X72450000Y30120000D03*
X69910000Y27580000D03*
X69910000Y30120000D03*
X67370000Y27580000D03*
X67370000Y30120000D03*
X67370000Y25040000D03*
X69910000Y25040000D03*
X67370000Y22500000D03*
X69910000Y22500000D03*
X67370000Y19960000D03*
X69910000Y19960000D03*
X67370000Y17420000D03*
X69910000Y17420000D03*
X67370000Y14880000D03*
X69910000Y14880000D03*
X67370000Y12340000D03*
X69910000Y12340000D03*
X67370000Y9800000D03*
X69910000Y9800000D03*
X67370000Y7260000D03*
X69910000Y7260000D03*
X72450000Y9800000D03*
X72450000Y7260000D03*
X74990000Y9800000D03*
X74990000Y7260000D03*
X77530000Y9800000D03*
X77530000Y7260000D03*
X80070000Y9800000D03*
X80070000Y7260000D03*
X82610000Y9800000D03*
X82610000Y7260000D03*
X85150000Y9800000D03*
X85150000Y7260000D03*
X87690000Y7260000D03*
X87690000Y9800000D03*
X90230000Y7260000D03*
X90230000Y9800000D03*
X87690000Y12340000D03*
X90230000Y12340000D03*
X87690000Y14880000D03*
X90230000Y14880000D03*
X90230000Y17420000D03*
X87690000Y17420000D03*
X90230000Y19960000D03*
X87690000Y19960000D03*
X90230000Y22500000D03*
X87690000Y22500000D03*
X90230000Y25040000D03*
X87690000Y25040000D03*
X90230000Y27580000D03*
D13*
X123390000Y-30850280D03*
X123390000Y-26600280D03*
D10*
X-16600000Y51650000D03*
X-16600000Y49150000D03*
X-11600000Y44150000D03*
X-6600000Y51650000D03*
X-6600000Y49150000D03*
D11*
X-11600000Y49150000D03*
D12*
X-16600000Y44150000D03*
X-6600000Y44150000D03*
X-14100000Y44150000D03*
X-9100000Y44150000D03*
D30*
X-3300000Y21350000D03*
D31*
X-3300000Y22600000D03*
D32*
X3900000Y37100000D03*
D10*
X3900000Y38600000D03*
D33*
X89795000Y44200000D03*
D18*
X92395000Y44200000D03*
D34*
X97945000Y47050000D03*
D35*
X91095000Y47850000D03*
D18*
X87695000Y44200000D03*
D34*
X84245000Y47050000D03*
D18*
X94495000Y44200000D03*
X87695000Y41400000D03*
X94495000Y41400000D03*
D36*
X21500000Y-44577100D03*
D37*
X23500000Y-44577100D03*
X25500000Y-44577100D03*
D38*
X19400000Y-44577100D03*
X27600000Y-44577100D03*
D20*
X31800000Y10125000D03*
D39*
X31800000Y7585000D03*
X31800000Y5045000D03*
D19*
X68500000Y-13700000D03*
D20*
X71040000Y-13700000D03*
D40*
X44745000Y41300000D03*
D41*
X43495000Y41300000D03*
X42245000Y41300000D03*
X40995000Y41300000D03*
X39745000Y41300000D03*
X38495000Y41300000D03*
X37245000Y41300000D03*
X35995000Y41300000D03*
D42*
X39700000Y47850000D03*
X14700000Y47850000D03*
D33*
X22885000Y45800000D03*
D18*
X25175000Y45800000D03*
X27465000Y45800000D03*
X29755000Y45800000D03*
X32045000Y45800000D03*
X21740000Y47780000D03*
X24030000Y47780000D03*
X26320000Y47780000D03*
X28610000Y47780000D03*
X30900000Y47780000D03*
X22885000Y49760000D03*
X25175000Y49760000D03*
X27465000Y49760000D03*
X29755000Y49760000D03*
X32045000Y49760000D03*
D43*
X111000000Y-11000000D03*
D44*
X117000000Y-11000000D03*
D45*
X114000000Y-6300000D03*
D46*
X86825000Y-20700000D03*
D37*
X79375000Y-20700000D03*
D17*
X57000000Y-28100000D03*
D18*
X59500000Y-28100000D03*
D47*
X101954900Y-20182200D03*
D48*
X104494900Y-20182200D03*
X101954900Y-22722200D03*
X104494900Y-22722200D03*
X101954900Y-25262200D03*
X104494900Y-25262200D03*
X101954900Y-27802200D03*
X104494900Y-27802200D03*
D33*
X76525000Y-38500000D03*
D18*
X79295000Y-38500000D03*
X82065000Y-38500000D03*
X84835000Y-38500000D03*
X87605000Y-38500000D03*
X77910000Y-41340000D03*
X80680000Y-41340000D03*
D42*
X69565000Y-40000000D03*
D18*
X83450000Y-41340000D03*
D42*
X94565000Y-40000000D03*
D18*
X86220000Y-41340000D03*
D36*
X122700000Y38700000D03*
D37*
X122700000Y40700000D03*
X122700000Y42700000D03*
D38*
X122700000Y36600000D03*
X122700000Y44800000D03*
D49*
X53645000Y45000000D03*
D50*
X48645000Y45000000D03*
X53645000Y49500000D03*
X58645000Y45000000D03*
D33*
X44615000Y-38500000D03*
D18*
X47385000Y-38500000D03*
X50155000Y-38500000D03*
X52925000Y-38500000D03*
X55695000Y-38500000D03*
X46000000Y-41340000D03*
X48770000Y-41340000D03*
D42*
X37655000Y-40000000D03*
D18*
X51540000Y-41340000D03*
D42*
X62655000Y-40000000D03*
D18*
X54310000Y-41340000D03*
D21*
X113215000Y42996900D03*
D22*
X110715000Y42996900D03*
X108715000Y42996900D03*
X106215000Y42996900D03*
X113215000Y40376900D03*
X110715000Y40376900D03*
X108715000Y40376900D03*
X106215000Y40376900D03*
D51*
X116285000Y45706900D03*
X103145000Y45706900D03*
X116285000Y40026900D03*
X103145000Y40026900D03*
D21*
X104930000Y-36790000D03*
D22*
X107430000Y-36790000D03*
X109430000Y-36790000D03*
X111930000Y-36790000D03*
X104930000Y-34170000D03*
X107430000Y-34170000D03*
X109430000Y-34170000D03*
X111930000Y-34170000D03*
D51*
X101860000Y-39500000D03*
X115000000Y-39500000D03*
X101860000Y-33820000D03*
X115000000Y-33820000D03*
D16*
X122000000Y49700000D03*
D52*
X123750000Y23600000D03*
X123750000Y15600000D03*
D30*
X-18000000Y21350000D03*
D31*
X-18000000Y22600000D03*
D53*
X14100000Y-30387500D03*
X14100000Y-32212500D03*
D54*
X-5100000Y30300000D03*
X-5100000Y32125000D03*
D55*
X123435000Y4500000D03*
X121610000Y4500000D03*
D56*
X-14600000Y34400000D03*
X-16500000Y34400000D03*
D53*
X64645000Y40900000D03*
X64645000Y39075000D03*
D55*
X13912500Y-14000000D03*
X12087500Y-14000000D03*
D53*
X59600000Y3012500D03*
X59600000Y1187500D03*
X-18300000Y-31987500D03*
X-18300000Y-33812500D03*
D54*
X-1100000Y35275000D03*
X-1100000Y37100000D03*
D57*
X71645000Y-7605000D03*
D58*
X70345000Y-7605000D03*
D56*
X117750000Y19500000D03*
X115850000Y19500000D03*
D59*
X34610000Y-35040000D03*
X32964552Y-34090000D03*
D60*
X115400000Y35350000D03*
X115400000Y33450000D03*
D55*
X-10487500Y-31700000D03*
X-12312500Y-31700000D03*
X51600000Y-32400000D03*
X49775000Y-32400000D03*
X-17187500Y14330000D03*
X-19012500Y14330000D03*
X-8327500Y8400000D03*
X-10152500Y8400000D03*
D61*
X95510000Y32988000D03*
X94240000Y32988000D03*
X92970000Y32988000D03*
X91700000Y32988000D03*
X90430000Y32988000D03*
X89160000Y32988000D03*
X87890000Y32988000D03*
X87890000Y38412000D03*
X89160000Y38412000D03*
X90430000Y38412000D03*
X91700000Y38412000D03*
X92970000Y38412000D03*
X94240000Y38412000D03*
X95510000Y38412000D03*
D55*
X5337500Y-19600000D03*
X3512500Y-19600000D03*
D62*
X113000000Y45950000D03*
X113000000Y47850000D03*
D54*
X1400000Y35375000D03*
X1400000Y37200000D03*
D53*
X4400000Y30000000D03*
X4400000Y28175000D03*
D55*
X-2287500Y-19600000D03*
X-4112500Y-19600000D03*
X11500000Y16282500D03*
X9675000Y16282500D03*
D54*
X-3600000Y10857500D03*
X-3600000Y12682500D03*
D63*
X7350000Y14092500D03*
X7350000Y12822500D03*
X7350000Y11552500D03*
X7350000Y10282500D03*
X2200000Y10282500D03*
X2200000Y11552500D03*
X2200000Y12822500D03*
X2200000Y14092500D03*
D53*
X-2900000Y19370000D03*
X-2900000Y17545000D03*
D54*
X25288000Y24340000D03*
X25288000Y26165000D03*
D53*
X63700000Y5512500D03*
X63700000Y3687500D03*
X7400000Y26757500D03*
X7400000Y24932500D03*
X-10500000Y-900000D03*
X-10500000Y-2725000D03*
D56*
X21100000Y-19050000D03*
X19200000Y-19050000D03*
D62*
X-22400000Y-19750000D03*
X-22400000Y-17850000D03*
D64*
X43600000Y-25290000D03*
X43600000Y-26560000D03*
X43600000Y-27830000D03*
X43600000Y-29100000D03*
X38176000Y-29100000D03*
X38176000Y-27830000D03*
X38176000Y-26560000D03*
X38176000Y-25290000D03*
D65*
X40888000Y-27195000D03*
D53*
X107020000Y-28280000D03*
X107020000Y-30105000D03*
D56*
X74500000Y46900000D03*
X72600000Y46900000D03*
D53*
X109180000Y-28260000D03*
X109180000Y-30085000D03*
X19300000Y11982500D03*
X19300000Y10157500D03*
X29145000Y36800000D03*
X29145000Y34975000D03*
X40145000Y36775000D03*
X40145000Y34950000D03*
D55*
X41345000Y29900000D03*
X39520000Y29900000D03*
D62*
X-20460000Y24012500D03*
X-20460000Y25912500D03*
D54*
X29933300Y40367000D03*
X29933300Y42192000D03*
D56*
X56300000Y-32500000D03*
X54400000Y-32500000D03*
D66*
X48000000Y-24800000D03*
X49825000Y-24800000D03*
D67*
X14700000Y-18200000D03*
X16600000Y-18200000D03*
X15650000Y-20075000D03*
D66*
X36720000Y32100000D03*
X38545000Y32100000D03*
D55*
X1925000Y22900000D03*
X100000Y22900000D03*
D68*
X10950000Y-19200000D03*
X12850000Y-19200000D03*
D55*
X-14375000Y2100000D03*
X-16200000Y2100000D03*
D54*
X-22800000Y25900000D03*
X-22800000Y27725000D03*
D69*
X-7470000Y100000D03*
X-6200000Y100000D03*
X-4930000Y100000D03*
X-3660000Y100000D03*
X-2390000Y100000D03*
X-1120000Y100000D03*
X150000Y100000D03*
X1420000Y100000D03*
X1420000Y-4900000D03*
X150000Y-4900000D03*
X-1120000Y-4900000D03*
X-2390000Y-4900000D03*
X-3660000Y-4900000D03*
X-4930000Y-4900000D03*
X-6200000Y-4900000D03*
X-7470000Y-4900000D03*
D68*
X17188000Y29940000D03*
X19088000Y29940000D03*
D53*
X35745000Y36775000D03*
X35745000Y34950000D03*
D54*
X81600000Y32887500D03*
X81600000Y34712500D03*
D55*
X11012500Y-44300000D03*
X9187500Y-44300000D03*
D68*
X-19700000Y17400000D03*
X-17800000Y17400000D03*
D54*
X85200000Y33087500D03*
X85200000Y34912500D03*
D70*
X99300000Y6590000D03*
X99300000Y7860000D03*
X99300000Y9130000D03*
X99300000Y10400000D03*
X99300000Y11670000D03*
X99300000Y12940000D03*
X99300000Y14210000D03*
X99300000Y15480000D03*
X104300000Y15480000D03*
X104300000Y14210000D03*
X104300000Y12940000D03*
X104300000Y11670000D03*
X104300000Y10400000D03*
X104300000Y9130000D03*
X104300000Y7860000D03*
X104300000Y6590000D03*
D66*
X175000Y20700000D03*
X2000000Y20700000D03*
D54*
X-11900000Y-16412500D03*
X-11900000Y-14587500D03*
D53*
X-10100000Y-26287500D03*
X-10100000Y-28112500D03*
D66*
X50075000Y-27900000D03*
X51900000Y-27900000D03*
D54*
X-3900000Y-14600000D03*
X-3900000Y-12775000D03*
D60*
X-16100000Y25900000D03*
X-16100000Y24000000D03*
D68*
X97150000Y42700000D03*
X99050000Y42700000D03*
D71*
X74500000Y49100000D03*
X72000000Y49100000D03*
D53*
X14300000Y19282500D03*
X14300000Y17457500D03*
D54*
X18945000Y40375000D03*
X18945000Y42200000D03*
X32155700Y40357800D03*
X32155700Y42182800D03*
D53*
X111330000Y-28260000D03*
X111330000Y-30085000D03*
D54*
X93800000Y27987500D03*
X93800000Y29812500D03*
D53*
X75145000Y40925000D03*
X75145000Y39100000D03*
D66*
X10787500Y-25100000D03*
X12612500Y-25100000D03*
D68*
X54400000Y-30300000D03*
X56300000Y-30300000D03*
D54*
X-4900000Y26000000D03*
X-4900000Y27825000D03*
D66*
X31045000Y29900000D03*
X32870000Y29900000D03*
D53*
X70945000Y40900000D03*
X70945000Y39075000D03*
D55*
X11812500Y33145000D03*
X9987500Y33145000D03*
X123435000Y2200000D03*
X121610000Y2200000D03*
X8600000Y36700000D03*
X6775000Y36700000D03*
D54*
X-6500000Y-14612500D03*
X-6500000Y-12787500D03*
D53*
X113490000Y-28250000D03*
X113490000Y-30075000D03*
D62*
X16900000Y32620000D03*
X16900000Y34520000D03*
D72*
X1545000Y-30900000D03*
X275000Y-30900000D03*
X-995000Y-30900000D03*
X-2265000Y-30900000D03*
X-3535000Y-30900000D03*
X-4805000Y-30900000D03*
X-6075000Y-30900000D03*
X-7345000Y-30900000D03*
X-7345000Y-25900000D03*
X-6075000Y-25900000D03*
X-4805000Y-25900000D03*
X-3535000Y-25900000D03*
X-2265000Y-25900000D03*
X-995000Y-25900000D03*
X275000Y-25900000D03*
X1545000Y-25900000D03*
D73*
X-12750000Y-34100000D03*
X-10250000Y-34100000D03*
D54*
X104300000Y33875000D03*
X104300000Y35700000D03*
X-8900000Y-14612500D03*
X-8900000Y-12787500D03*
X-2900000Y-35212500D03*
X-2900000Y-33387500D03*
D55*
X98312500Y-20440000D03*
X96487500Y-20440000D03*
X98285000Y-24780000D03*
X96460000Y-24780000D03*
D62*
X-22200000Y7900000D03*
X-22200000Y9800000D03*
D55*
X68412500Y-33200000D03*
X66587500Y-33200000D03*
D74*
X23100000Y27410000D03*
X23100000Y26140000D03*
X23100000Y24870000D03*
X23100000Y23600000D03*
X23100000Y22330000D03*
X23100000Y21060000D03*
X23100000Y19790000D03*
X17676000Y19790000D03*
X17676000Y21060000D03*
X17676000Y22330000D03*
X17676000Y23600000D03*
X17676000Y24870000D03*
X17676000Y26140000D03*
X17676000Y27410000D03*
D68*
X-8725000Y-7245000D03*
X-6825000Y-7245000D03*
D62*
X4360000Y17050000D03*
X4360000Y18950000D03*
D53*
X107800000Y15912500D03*
X107800000Y14087500D03*
D54*
X6200000Y-14612500D03*
X6200000Y-12787500D03*
D53*
X66745000Y40900000D03*
X66745000Y39075000D03*
D60*
X60700000Y-11450000D03*
X60700000Y-13350000D03*
D55*
X98302500Y-27060000D03*
X96477500Y-27060000D03*
D53*
X16800000Y17182500D03*
X16800000Y15357500D03*
D62*
X-1200000Y12382500D03*
X-1200000Y14282500D03*
D55*
X36970000Y27100000D03*
X35145000Y27100000D03*
D66*
X-17500000Y32100000D03*
X-15675000Y32100000D03*
X114310000Y4800000D03*
X116135000Y4800000D03*
D71*
X-5350000Y-34100000D03*
X-7850000Y-34100000D03*
D53*
X35800000Y-21700000D03*
X35800000Y-23525000D03*
X33545000Y36800000D03*
X33545000Y34975000D03*
D62*
X14300000Y21382500D03*
X14300000Y23282500D03*
D66*
X-14912500Y19710000D03*
X-13087500Y19710000D03*
D68*
X39000000Y-23100000D03*
X40900000Y-23100000D03*
D53*
X50290000Y27230000D03*
X50290000Y25405000D03*
D75*
X65400000Y-7400000D03*
D76*
X66700000Y-7400000D03*
D54*
X21145000Y40350000D03*
X21145000Y42175000D03*
D56*
X116990000Y390000D03*
X115090000Y390000D03*
D53*
X79345000Y40900000D03*
X79345000Y39075000D03*
D68*
X114650000Y-1750000D03*
X116550000Y-1750000D03*
D53*
X73000000Y19212500D03*
X73000000Y17387500D03*
D55*
X-10275000Y1300000D03*
X-12100000Y1300000D03*
D53*
X-13200000Y-4187500D03*
X-13200000Y-6012500D03*
D54*
X85750000Y-3012500D03*
X85750000Y-1187500D03*
D53*
X45100000Y36812500D03*
X45100000Y34987500D03*
X77245000Y40925000D03*
X77245000Y39100000D03*
D74*
X20588000Y-33851400D03*
X20588000Y-32581400D03*
X20588000Y-31311400D03*
X20588000Y-30041400D03*
X20588000Y-28771400D03*
X20588000Y-27501400D03*
X20588000Y-26231400D03*
X26012000Y-26231400D03*
X26012000Y-27501400D03*
X26012000Y-28771400D03*
X26012000Y-30041400D03*
X26012000Y-31311400D03*
X26012000Y-32581400D03*
X26012000Y-33851400D03*
D55*
X23613000Y29940000D03*
X21788000Y29940000D03*
D77*
X88150000Y-2640000D03*
X88150000Y-1370000D03*
X88150000Y-100000D03*
X91200000Y-100000D03*
X91200000Y-1370000D03*
X91200000Y-2640000D03*
D55*
X9212500Y-19600000D03*
X7387500Y-19600000D03*
D53*
X36000000Y48112500D03*
X36000000Y46287500D03*
D54*
X33000000Y-24912500D03*
X33000000Y-23087500D03*
D69*
X-14945000Y16470000D03*
X-13675000Y16470000D03*
X-12405000Y16470000D03*
X-11135000Y16470000D03*
X-9865000Y16470000D03*
X-8595000Y16470000D03*
X-7325000Y16470000D03*
X-6055000Y16470000D03*
X-6055000Y11470000D03*
X-7325000Y11470000D03*
X-8595000Y11470000D03*
X-9865000Y11470000D03*
X-11135000Y11470000D03*
X-12405000Y11470000D03*
X-13675000Y11470000D03*
X-14945000Y11470000D03*
D60*
X97870000Y38712000D03*
X97870000Y36812000D03*
D54*
X25545000Y40350000D03*
X25545000Y42175000D03*
D55*
X37445000Y29900000D03*
X35620000Y29900000D03*
D60*
X-1200000Y10582500D03*
X-1200000Y8682500D03*
D66*
X-9752500Y19600000D03*
X-7927500Y19600000D03*
D78*
X1870000Y26700000D03*
X600000Y26700000D03*
X-670000Y26700000D03*
X-1940000Y26700000D03*
X-1940000Y31850000D03*
X-670000Y31850000D03*
X600000Y31850000D03*
X1870000Y31850000D03*
D54*
X84800000Y23287500D03*
X84800000Y25112500D03*
D66*
X121475000Y-3550000D03*
X123300000Y-3550000D03*
D53*
X-22400000Y17325000D03*
X-22400000Y15500000D03*
D68*
X36650000Y-33000000D03*
X38550000Y-33000000D03*
D54*
X23345000Y40375000D03*
X23345000Y42200000D03*
D68*
X6770000Y29820000D03*
X8670000Y29820000D03*
D60*
X104200000Y20550000D03*
X104200000Y18650000D03*
D55*
X22713000Y32340000D03*
X20888000Y32340000D03*
D66*
X114310000Y2600000D03*
X116135000Y2600000D03*
X-19625000Y19600000D03*
X-17800000Y19600000D03*
D56*
X6200000Y32800000D03*
X4300000Y32800000D03*
D53*
X13700000Y13582500D03*
X13700000Y11757500D03*
D54*
X-1400000Y-14612500D03*
X-1400000Y-12787500D03*
D55*
X98312500Y-18225000D03*
X96487500Y-18225000D03*
D53*
X31345000Y36800000D03*
X31345000Y34975000D03*
D54*
X106500000Y33887500D03*
X106500000Y35712500D03*
D62*
X4400000Y22800000D03*
X4400000Y24700000D03*
D66*
X800000Y-43900000D03*
X2625000Y-43900000D03*
D53*
X73045000Y40925000D03*
X73045000Y39100000D03*
X37945000Y36750000D03*
X37945000Y34925000D03*
D69*
X100355000Y28100000D03*
X101625000Y28100000D03*
X102895000Y28100000D03*
X104165000Y28100000D03*
X105435000Y28100000D03*
X106705000Y28100000D03*
X107975000Y28100000D03*
X109245000Y28100000D03*
X109245000Y23100000D03*
X107975000Y23100000D03*
X106705000Y23100000D03*
X105435000Y23100000D03*
X104165000Y23100000D03*
X102895000Y23100000D03*
X101625000Y23100000D03*
X100355000Y23100000D03*
D53*
X14700000Y-26687500D03*
X14700000Y-28512500D03*
D54*
X-23240000Y29787500D03*
X-23240000Y31612500D03*
X8700000Y-14625000D03*
X8700000Y-12800000D03*
D68*
X-5200000Y38600000D03*
X-3300000Y38600000D03*
D66*
X-16225000Y-12800000D03*
X-14400000Y-12800000D03*
D54*
X1100000Y-14612500D03*
X1100000Y-12787500D03*
X108750000Y33887500D03*
X108750000Y35712500D03*
D55*
X-9800000Y-19600000D03*
X-11625000Y-19600000D03*
D54*
X3700000Y-14612500D03*
X3700000Y-12787500D03*
D68*
X105810000Y-41970000D03*
X107710000Y-41970000D03*
D55*
X98302500Y-22650000D03*
X96477500Y-22650000D03*
D53*
X-15300000Y-31987500D03*
X-15300000Y-33812500D03*
X-13400000Y-26987500D03*
X-13400000Y-28812500D03*
D68*
X-9800000Y34200000D03*
X-7900000Y34200000D03*
D55*
X48325000Y-30100000D03*
X46500000Y-30100000D03*
X1712500Y-34500000D03*
X-112500Y-34500000D03*
D60*
X106900000Y8660000D03*
X106900000Y6760000D03*
D53*
X27745000Y42200000D03*
X27745000Y40375000D03*
D68*
X59493600Y-16249500D03*
X61393600Y-16249500D03*
D55*
X32945000Y32300000D03*
X31120000Y32300000D03*
D60*
X85470000Y38712000D03*
X85470000Y36812000D03*
D62*
X-20540000Y29950000D03*
X-20540000Y31850000D03*
D53*
X-16600000Y-5487500D03*
X-16600000Y-7312500D03*
D62*
X97870000Y32912000D03*
X97870000Y34812000D03*
D70*
X-13100000Y22400000D03*
X-13100000Y23670000D03*
X-13100000Y24940000D03*
X-13100000Y26210000D03*
X-13100000Y27480000D03*
X-13100000Y28750000D03*
X-13100000Y30020000D03*
X-13100000Y31290000D03*
X-8100000Y31290000D03*
X-8100000Y30020000D03*
X-8100000Y28750000D03*
X-8100000Y27480000D03*
X-8100000Y26210000D03*
X-8100000Y24940000D03*
X-8100000Y23670000D03*
X-8100000Y22400000D03*
D66*
X10287500Y2200000D03*
X12112500Y2200000D03*
D55*
X88225000Y-31400000D03*
X86400000Y-31400000D03*
D53*
X68845000Y40900000D03*
X68845000Y39075000D03*
D60*
X16000000Y13657500D03*
X16000000Y11757500D03*
D66*
X9900000Y21382500D03*
X11725000Y21382500D03*
X9900000Y19082500D03*
X11725000Y19082500D03*
D68*
X105760000Y-39730000D03*
X107660000Y-39730000D03*
D66*
X-5100000Y35800000D03*
X-3275000Y35800000D03*
D55*
X-5987500Y-19600000D03*
X-7812500Y-19600000D03*
D54*
X111000000Y33887500D03*
X111000000Y35712500D03*
D68*
X3850000Y-25900000D03*
X5750000Y-25900000D03*
D54*
X-21700000Y-30125000D03*
X-21700000Y-28300000D03*
D78*
X58472515Y-13251185D03*
X57202515Y-13251185D03*
X55932515Y-13251185D03*
X54662515Y-13251185D03*
X54662515Y-8101185D03*
X55932515Y-8101185D03*
X57202515Y-8101185D03*
X58472515Y-8101185D03*
D56*
X-13000000Y9070000D03*
X-14900000Y9070000D03*
D55*
X1512500Y-19600000D03*
X-312500Y-19600000D03*
D53*
X42345000Y36775000D03*
X42345000Y34950000D03*
D55*
X-14787500Y-41200000D03*
X-16612500Y-41200000D03*
D53*
X55293600Y-20849500D03*
X55293600Y-22674500D03*
D54*
X11300000Y11757500D03*
X11300000Y13582500D03*
D79*
X63100000Y-25350000D03*
X60800000Y-25350000D03*
D80*
X60800000Y-19050000D03*
D79*
X58500000Y-25350000D03*
D66*
X46475000Y-27900000D03*
X48300000Y-27900000D03*
M02*
