G04 #@! TF.GenerationSoftware,KiCad,Pcbnew,10.0.4-10.0.4~ubuntu26.04.1*
G04 #@! TF.CreationDate,2026-07-21T17:30:47+05:00*
G04 #@! TF.ProjectId,megafrank,6d656761-6672-4616-9e6b-2e6b69636164,1.02-U4*
G04 #@! TF.SameCoordinates,PX5f5e100PY5f5e100*
G04 #@! TF.FileFunction,Paste,Top*
G04 #@! TF.FilePolarity,Positive*
%FSLAX46Y46*%
G04 Gerber Fmt 4.6, Leading zero omitted, Abs format (unit mm)*
G04 Created by KiCad (PCBNEW 10.0.4-10.0.4~ubuntu26.04.1) date 2026-07-21 17:30:47*
%MOMM*%
%LPD*%
G01*
G04 APERTURE LIST*
G04 Aperture macros list*
%AMRoundRect*
0 Rectangle with rounded corners*
0 $1 Rounding radius*
0 $2 $3 $4 $5 $6 $7 $8 $9 X,Y pos of 4 corners*
0 Add a 4 corners polygon primitive as box body*
4,1,4,$2,$3,$4,$5,$6,$7,$8,$9,$2,$3,0*
0 Add four circle primitives for the rounded corners*
1,1,$1+$1,$2,$3*
1,1,$1+$1,$4,$5*
1,1,$1+$1,$6,$7*
1,1,$1+$1,$8,$9*
0 Add four rect primitives between the rounded corners*
20,1,$1+$1,$2,$3,$4,$5,0*
20,1,$1+$1,$4,$5,$6,$7,0*
20,1,$1+$1,$6,$7,$8,$9,0*
20,1,$1+$1,$8,$9,$2,$3,0*%
G04 Aperture macros list end*
%ADD10R,0.900000X1.000000*%
%ADD11R,1.211102X0.846933*%
%ADD12R,1.210160X0.850626*%
%ADD13R,1.803508X0.599996*%
%ADD14R,0.600000X1.252114*%
%ADD15R,4.500000X2.000000*%
%ADD16R,0.300000X2.600000*%
%ADD17RoundRect,0.150000X0.512500X0.150000X-0.512500X0.150000X-0.512500X-0.150000X0.512500X-0.150000X0*%
%ADD18RoundRect,0.150000X-0.825000X-0.150000X0.825000X-0.150000X0.825000X0.150000X-0.825000X0.150000X0*%
%ADD19R,3.050000X2.200000*%
%ADD20RoundRect,0.250000X0.650000X-1.000000X0.650000X1.000000X-0.650000X1.000000X-0.650000X-1.000000X0*%
%ADD21R,1.450000X0.600000*%
%ADD22R,1.450000X0.550000*%
%ADD23R,1.450000X0.300000*%
%ADD24RoundRect,0.150000X0.625000X-0.150000X0.625000X0.150000X-0.625000X0.150000X-0.625000X-0.150000X0*%
%ADD25RoundRect,0.250000X0.650000X-0.350000X0.650000X0.350000X-0.650000X0.350000X-0.650000X-0.350000X0*%
%ADD26RoundRect,0.308836X-0.494138X-0.541164X0.494138X-0.541164X0.494138X0.541164X-0.494138X0.541164X0*%
%ADD27RoundRect,0.304790X-0.487663X-0.549451X0.487663X-0.549451X0.487663X0.549451X-0.487663X0.549451X0*%
%ADD28RoundRect,0.250000X0.450000X-0.325000X0.450000X0.325000X-0.450000X0.325000X-0.450000X-0.325000X0*%
%ADD29RoundRect,0.250000X0.250000X0.475000X-0.250000X0.475000X-0.250000X-0.475000X0.250000X-0.475000X0*%
%ADD30RoundRect,0.250000X0.325000X0.450000X-0.325000X0.450000X-0.325000X-0.450000X0.325000X-0.450000X0*%
%ADD31RoundRect,0.250000X-0.450000X0.325000X-0.450000X-0.325000X0.450000X-0.325000X0.450000X0.325000X0*%
%ADD32R,4.500000X2.300000*%
%ADD33R,1.600000X0.700000*%
%ADD34R,2.200000X1.200000*%
%ADD35R,1.400000X1.600000*%
%ADD36R,1.400000X1.200000*%
G04 APERTURE END LIST*
D10*
X-5400000Y-44100000D03*
X-5400000Y-41900000D03*
X-600000Y-44100000D03*
X-600000Y-41900000D03*
D11*
X122194449Y-38476550D03*
D12*
X122194920Y-36124704D03*
D13*
X122490000Y-37300000D03*
D14*
X124500000Y-39174737D03*
X124500000Y-35424178D03*
D15*
X11600000Y-16100000D03*
X20100000Y-16100000D03*
D16*
X67345000Y44540000D03*
X67845000Y44540000D03*
X68345000Y44540000D03*
X68845000Y44540000D03*
X69345000Y44540000D03*
X69845000Y44540000D03*
X70345000Y44540000D03*
X70845000Y44540000D03*
X71345000Y44540000D03*
X71845000Y44540000D03*
X72345000Y44540000D03*
X72845000Y44540000D03*
X73345000Y44540000D03*
X73845000Y44540000D03*
X74345000Y44540000D03*
X74845000Y44540000D03*
X75345000Y44540000D03*
X75845000Y44540000D03*
X76345000Y44540000D03*
D17*
X112842300Y2707000D03*
X112842300Y3657000D03*
X112842300Y4607000D03*
X110567300Y4607000D03*
X110567300Y3657000D03*
X110567300Y2707000D03*
D18*
X53900000Y9810000D03*
X53900000Y8540000D03*
X53900000Y7270000D03*
X53900000Y6000000D03*
X58850000Y6000000D03*
X58850000Y7270000D03*
X58850000Y8540000D03*
X58850000Y9810000D03*
D10*
X98500000Y-5200000D03*
X98500000Y-7400000D03*
X93700000Y-5200000D03*
X93700000Y-7400000D03*
D19*
X43800000Y-22200000D03*
X43800000Y-12900000D03*
D20*
X51400000Y-21525000D03*
X51400000Y-17525000D03*
D21*
X118700000Y175000D03*
D22*
X118700000Y950000D03*
D23*
X118700000Y1650000D03*
X118700000Y2150000D03*
X118700000Y2650000D03*
X118700000Y3150000D03*
X118700000Y3650000D03*
X118700000Y4150000D03*
X118700000Y4650000D03*
X118700000Y5150000D03*
D22*
X118700000Y5850000D03*
D21*
X118700000Y6625000D03*
D11*
X122194449Y-21326533D03*
D12*
X122194920Y-18974687D03*
D13*
X122490000Y-20149983D03*
D14*
X124500000Y-22024720D03*
X124500000Y-18274161D03*
D24*
X97425000Y15400000D03*
D25*
X94900000Y12100000D03*
D24*
X97425000Y14400000D03*
D25*
X94900000Y16700000D03*
D24*
X97425000Y13400000D03*
D26*
X69200026Y-30500020D03*
D27*
X72404598Y-30495778D03*
D11*
X122194449Y-29901813D03*
D12*
X122194920Y-27549967D03*
D13*
X122490000Y-28725263D03*
D14*
X124500000Y-30600000D03*
X124500000Y-26849441D03*
D10*
X98400000Y-10600000D03*
X98400000Y-12800000D03*
X93600000Y-10600000D03*
X93600000Y-12800000D03*
D28*
X6400000Y-44025000D03*
X6400000Y-41975000D03*
D29*
X51050000Y8600000D03*
X49150000Y8600000D03*
D30*
X61750000Y18520000D03*
X59700000Y18520000D03*
D31*
X55305500Y-16530700D03*
X55305500Y-18580700D03*
D32*
X74900000Y-20700000D03*
X91300000Y-20700000D03*
D26*
X90197026Y-29311020D03*
D27*
X93401598Y-29306778D03*
D28*
X3100000Y-44025000D03*
X3100000Y-41975000D03*
D24*
X97425000Y23200000D03*
D25*
X94900000Y19900000D03*
D24*
X97425000Y22200000D03*
D25*
X94900000Y24500000D03*
D24*
X97425000Y21200000D03*
D33*
X113250000Y22800000D03*
X113250000Y21700000D03*
X113250000Y20600000D03*
X113250000Y19500000D03*
X113250000Y18400000D03*
X113250000Y17300000D03*
X113250000Y16200000D03*
X113250000Y15100000D03*
X113250000Y14000000D03*
D34*
X123450000Y28300000D03*
D35*
X113850000Y27400000D03*
D34*
X123350000Y12800000D03*
D36*
X113850000Y12800000D03*
M02*
